<svg xmlns="http://www.w3.org/2000/svg" viewBox="0 0 1024 1024" role="img"><path d="M777.837 512.103c-8.072 40.739-47.4 65.863-88.383 59.16-23.872-3.906-47.072-16.17-68.82-33.868l9.66-46.418c8.072-40.747 47.636-75.33 88.383-67.257a75.206 75.206 0 0159.16 88.383zM1024 64v896a64 64 0 01-64 64H64a64 64 0 01-64-64V64A64 64 0 0164 0h896a64 64 0 0164 64zM735.19 347.66a153.207 153.207 0 00-179.225 116.63c-35.657-52.55-62.015-114.338-72.75-161.553l-75.743.001V499.34a71.416 71.416 0 01-142.832 0V302.739h-75.743v199.484a147.16 147.16 0 00294.318 0v-30.958c13.3 31.507 30.584 62.625 52.566 89.934l-45.393 218.11h79.907L603.24 620.98a217.3 217.3 0 0072.414 27.266c83.209 15.397 163.628-37.522 180.067-120.53A153.214 153.214 0 00735.19 347.66z"/></svg>